<mxfile host="app.diagrams.net" agent="Mozilla/5.0 (Windows NT 10.0; Win64; x64) AppleWebKit/537.36 (KHTML, like Gecko) Chrome/138.0.0.0 Safari/537.36 Edg/138.0.0.0" version="28.0.7">
  <diagram name="第 1 页" id="bvHmhI-jukh_dUxzp8n2">
    <mxGraphModel dx="1176" dy="674" grid="1" gridSize="10" guides="1" tooltips="1" connect="1" arrows="1" fold="1" page="1" pageScale="1" pageWidth="827" pageHeight="1169" math="0" shadow="0">
      <root>
        <mxCell id="0" />
        <mxCell id="1" parent="0" />
        <mxCell id="0f87lXFvih5jp-AKnrfd-6" value="" style="rounded=1;whiteSpace=wrap;html=1;" vertex="1" parent="1">
          <mxGeometry x="160" y="360" width="480" height="270" as="geometry" />
        </mxCell>
        <mxCell id="0f87lXFvih5jp-AKnrfd-1" value="" style="endArrow=none;dashed=1;html=1;rounded=0;exitX=0;exitY=0.5;exitDx=0;exitDy=0;entryX=1;entryY=0.5;entryDx=0;entryDy=0;" edge="1" parent="1" source="0f87lXFvih5jp-AKnrfd-6" target="0f87lXFvih5jp-AKnrfd-6">
          <mxGeometry width="50" height="50" relative="1" as="geometry">
            <mxPoint x="158.5400000000002" y="488.72" as="sourcePoint" />
            <mxPoint x="887.0800000000002" y="489.96000000000004" as="targetPoint" />
          </mxGeometry>
        </mxCell>
        <mxCell id="0f87lXFvih5jp-AKnrfd-3" value="&lt;b&gt;Control Plane&lt;/b&gt;" style="text;html=1;align=center;verticalAlign=middle;whiteSpace=wrap;rounded=0;" vertex="1" parent="1">
          <mxGeometry x="170" y="450" width="110" height="30" as="geometry" />
        </mxCell>
        <mxCell id="0f87lXFvih5jp-AKnrfd-5" value="&lt;b&gt;Data Plane&lt;/b&gt;" style="text;html=1;align=center;verticalAlign=middle;whiteSpace=wrap;rounded=0;" vertex="1" parent="1">
          <mxGeometry x="170" y="500" width="110" height="30" as="geometry" />
        </mxCell>
        <mxCell id="0f87lXFvih5jp-AKnrfd-7" value="" style="rounded=1;whiteSpace=wrap;html=1;" vertex="1" parent="1">
          <mxGeometry x="280" y="380" width="210" height="110" as="geometry" />
        </mxCell>
        <mxCell id="0f87lXFvih5jp-AKnrfd-8" value="Policy Decision Point&lt;div&gt;(PDP)&lt;/div&gt;" style="text;html=1;align=center;verticalAlign=middle;whiteSpace=wrap;rounded=0;" vertex="1" parent="1">
          <mxGeometry x="280" y="410" width="70" height="50" as="geometry" />
        </mxCell>
        <mxCell id="0f87lXFvih5jp-AKnrfd-17" style="edgeStyle=orthogonalEdgeStyle;rounded=0;orthogonalLoop=1;jettySize=auto;html=1;" edge="1" parent="1" source="0f87lXFvih5jp-AKnrfd-9" target="0f87lXFvih5jp-AKnrfd-16">
          <mxGeometry relative="1" as="geometry" />
        </mxCell>
        <mxCell id="0f87lXFvih5jp-AKnrfd-9" value="Policy&lt;div&gt;Enforcement&amp;nbsp;&lt;/div&gt;&lt;div&gt;Point&lt;div&gt;(PEP)&lt;/div&gt;&lt;/div&gt;" style="rounded=1;whiteSpace=wrap;html=1;" vertex="1" parent="1">
          <mxGeometry x="310" y="530" width="150" height="80" as="geometry" />
        </mxCell>
        <mxCell id="0f87lXFvih5jp-AKnrfd-11" value="Policy Engine" style="rounded=1;whiteSpace=wrap;html=1;" vertex="1" parent="1">
          <mxGeometry x="360" y="390" width="80" height="30" as="geometry" />
        </mxCell>
        <mxCell id="0f87lXFvih5jp-AKnrfd-12" value="Policy Administrator" style="rounded=1;whiteSpace=wrap;html=1;" vertex="1" parent="1">
          <mxGeometry x="360" y="450" width="80" height="30" as="geometry" />
        </mxCell>
        <mxCell id="0f87lXFvih5jp-AKnrfd-13" value="" style="endArrow=classic;html=1;rounded=0;exitX=0.33;exitY=0.021;exitDx=0;exitDy=0;exitPerimeter=0;" edge="1" parent="1" source="0f87lXFvih5jp-AKnrfd-9">
          <mxGeometry width="50" height="50" relative="1" as="geometry">
            <mxPoint x="310" y="540" as="sourcePoint" />
            <mxPoint x="360" y="490" as="targetPoint" />
          </mxGeometry>
        </mxCell>
        <mxCell id="0f87lXFvih5jp-AKnrfd-14" value="" style="endArrow=classic;html=1;rounded=0;entryX=0.669;entryY=0.029;entryDx=0;entryDy=0;entryPerimeter=0;" edge="1" parent="1" target="0f87lXFvih5jp-AKnrfd-9">
          <mxGeometry width="50" height="50" relative="1" as="geometry">
            <mxPoint x="410" y="490" as="sourcePoint" />
            <mxPoint x="460" y="440" as="targetPoint" />
          </mxGeometry>
        </mxCell>
        <mxCell id="0f87lXFvih5jp-AKnrfd-16" value="Enterprise&lt;div&gt;Resource&lt;/div&gt;" style="rounded=1;whiteSpace=wrap;html=1;" vertex="1" parent="1">
          <mxGeometry x="520" y="545" width="90" height="50" as="geometry" />
        </mxCell>
        <mxCell id="0f87lXFvih5jp-AKnrfd-18" value="Trust" style="text;html=1;align=center;verticalAlign=middle;whiteSpace=wrap;rounded=0;" vertex="1" parent="1">
          <mxGeometry x="460" y="540" width="60" height="35" as="geometry" />
        </mxCell>
        <mxCell id="0f87lXFvih5jp-AKnrfd-19" value="Subjuct" style="shape=umlActor;verticalLabelPosition=bottom;verticalAlign=top;html=1;outlineConnect=0;" vertex="1" parent="1">
          <mxGeometry x="210" y="535" width="30" height="60" as="geometry" />
        </mxCell>
        <mxCell id="0f87lXFvih5jp-AKnrfd-20" style="edgeStyle=orthogonalEdgeStyle;rounded=0;orthogonalLoop=1;jettySize=auto;html=1;entryX=-0.002;entryY=0.443;entryDx=0;entryDy=0;entryPerimeter=0;" edge="1" parent="1" source="0f87lXFvih5jp-AKnrfd-19" target="0f87lXFvih5jp-AKnrfd-9">
          <mxGeometry relative="1" as="geometry" />
        </mxCell>
        <mxCell id="0f87lXFvih5jp-AKnrfd-21" value="Untrust" style="text;html=1;align=center;verticalAlign=middle;whiteSpace=wrap;rounded=0;" vertex="1" parent="1">
          <mxGeometry x="240" y="535" width="60" height="35" as="geometry" />
        </mxCell>
        <mxCell id="0f87lXFvih5jp-AKnrfd-22" value="" style="endArrow=classic;startArrow=classic;html=1;rounded=0;entryX=0.5;entryY=1;entryDx=0;entryDy=0;exitX=0.5;exitY=0;exitDx=0;exitDy=0;" edge="1" parent="1" source="0f87lXFvih5jp-AKnrfd-12" target="0f87lXFvih5jp-AKnrfd-11">
          <mxGeometry width="50" height="50" relative="1" as="geometry">
            <mxPoint x="560" y="560" as="sourcePoint" />
            <mxPoint x="610" y="510" as="targetPoint" />
          </mxGeometry>
        </mxCell>
        <mxCell id="0f87lXFvih5jp-AKnrfd-23" value="Traffic Records" style="rounded=0;whiteSpace=wrap;html=1;" vertex="1" parent="1">
          <mxGeometry x="30" y="455" width="90" height="40" as="geometry" />
        </mxCell>
        <mxCell id="0f87lXFvih5jp-AKnrfd-24" value="Threat Intelligence" style="rounded=0;whiteSpace=wrap;html=1;" vertex="1" parent="1">
          <mxGeometry x="30" y="510" width="90" height="40" as="geometry" />
        </mxCell>
        <mxCell id="0f87lXFvih5jp-AKnrfd-25" value="CDM System" style="rounded=0;whiteSpace=wrap;html=1;" vertex="1" parent="1">
          <mxGeometry x="30" y="560" width="90" height="40" as="geometry" />
        </mxCell>
        <mxCell id="0f87lXFvih5jp-AKnrfd-26" value="Activity Logs" style="rounded=0;whiteSpace=wrap;html=1;" vertex="1" parent="1">
          <mxGeometry x="30" y="400" width="90" height="40" as="geometry" />
        </mxCell>
        <mxCell id="0f87lXFvih5jp-AKnrfd-27" value="Data Access&lt;div&gt;Policy&lt;/div&gt;" style="rounded=0;whiteSpace=wrap;html=1;" vertex="1" parent="1">
          <mxGeometry x="690" y="455" width="90" height="40" as="geometry" />
        </mxCell>
        <mxCell id="0f87lXFvih5jp-AKnrfd-28" value="PKI" style="rounded=0;whiteSpace=wrap;html=1;" vertex="1" parent="1">
          <mxGeometry x="690" y="510" width="90" height="40" as="geometry" />
        </mxCell>
        <mxCell id="0f87lXFvih5jp-AKnrfd-29" value="SIEM System" style="rounded=0;whiteSpace=wrap;html=1;" vertex="1" parent="1">
          <mxGeometry x="690" y="560" width="90" height="40" as="geometry" />
        </mxCell>
        <mxCell id="0f87lXFvih5jp-AKnrfd-30" value="ID Management" style="rounded=0;whiteSpace=wrap;html=1;" vertex="1" parent="1">
          <mxGeometry x="690" y="400" width="90" height="40" as="geometry" />
        </mxCell>
        <mxCell id="0f87lXFvih5jp-AKnrfd-31" style="edgeStyle=orthogonalEdgeStyle;rounded=0;orthogonalLoop=1;jettySize=auto;html=1;entryX=0.001;entryY=0.221;entryDx=0;entryDy=0;entryPerimeter=0;" edge="1" parent="1" source="0f87lXFvih5jp-AKnrfd-26" target="0f87lXFvih5jp-AKnrfd-6">
          <mxGeometry relative="1" as="geometry" />
        </mxCell>
        <mxCell id="0f87lXFvih5jp-AKnrfd-32" style="edgeStyle=orthogonalEdgeStyle;rounded=0;orthogonalLoop=1;jettySize=auto;html=1;entryX=-0.001;entryY=0.426;entryDx=0;entryDy=0;entryPerimeter=0;" edge="1" parent="1" source="0f87lXFvih5jp-AKnrfd-23" target="0f87lXFvih5jp-AKnrfd-6">
          <mxGeometry relative="1" as="geometry" />
        </mxCell>
        <mxCell id="0f87lXFvih5jp-AKnrfd-34" style="edgeStyle=orthogonalEdgeStyle;rounded=0;orthogonalLoop=1;jettySize=auto;html=1;entryX=-0.001;entryY=0.632;entryDx=0;entryDy=0;entryPerimeter=0;" edge="1" parent="1" source="0f87lXFvih5jp-AKnrfd-24" target="0f87lXFvih5jp-AKnrfd-6">
          <mxGeometry relative="1" as="geometry" />
        </mxCell>
        <mxCell id="0f87lXFvih5jp-AKnrfd-35" style="edgeStyle=orthogonalEdgeStyle;rounded=0;orthogonalLoop=1;jettySize=auto;html=1;entryX=-0.002;entryY=0.816;entryDx=0;entryDy=0;entryPerimeter=0;" edge="1" parent="1" source="0f87lXFvih5jp-AKnrfd-25" target="0f87lXFvih5jp-AKnrfd-6">
          <mxGeometry relative="1" as="geometry" />
        </mxCell>
        <mxCell id="0f87lXFvih5jp-AKnrfd-36" style="edgeStyle=orthogonalEdgeStyle;rounded=0;orthogonalLoop=1;jettySize=auto;html=1;entryX=1.001;entryY=0.223;entryDx=0;entryDy=0;entryPerimeter=0;" edge="1" parent="1" source="0f87lXFvih5jp-AKnrfd-30" target="0f87lXFvih5jp-AKnrfd-6">
          <mxGeometry relative="1" as="geometry" />
        </mxCell>
        <mxCell id="0f87lXFvih5jp-AKnrfd-37" style="edgeStyle=orthogonalEdgeStyle;rounded=0;orthogonalLoop=1;jettySize=auto;html=1;entryX=1;entryY=0.426;entryDx=0;entryDy=0;entryPerimeter=0;" edge="1" parent="1" source="0f87lXFvih5jp-AKnrfd-27" target="0f87lXFvih5jp-AKnrfd-6">
          <mxGeometry relative="1" as="geometry" />
        </mxCell>
        <mxCell id="0f87lXFvih5jp-AKnrfd-39" style="edgeStyle=orthogonalEdgeStyle;rounded=0;orthogonalLoop=1;jettySize=auto;html=1;entryX=1.005;entryY=0.632;entryDx=0;entryDy=0;entryPerimeter=0;" edge="1" parent="1" source="0f87lXFvih5jp-AKnrfd-28" target="0f87lXFvih5jp-AKnrfd-6">
          <mxGeometry relative="1" as="geometry" />
        </mxCell>
        <mxCell id="0f87lXFvih5jp-AKnrfd-40" style="edgeStyle=orthogonalEdgeStyle;rounded=0;orthogonalLoop=1;jettySize=auto;html=1;entryX=1.001;entryY=0.818;entryDx=0;entryDy=0;entryPerimeter=0;" edge="1" parent="1" source="0f87lXFvih5jp-AKnrfd-29" target="0f87lXFvih5jp-AKnrfd-6">
          <mxGeometry relative="1" as="geometry" />
        </mxCell>
      </root>
    </mxGraphModel>
  </diagram>
</mxfile>
